<?xml version="1.0" encoding="UTF-8"?>
<!DOCTYPE svg PUBLIC "-//W3C//DTD SVG 1.1//EN" "http://www.w3.org/Graphics/SVG/1.1/DTD/svg11.dtd">
<svg xmlns="http://www.w3.org/2000/svg" xmlns:xlink="http://www.w3.org/1999/xlink" version="1.1"
     width="360px" height="360px">
  <defs>
    <style type="text/css">
      @font-face { font-family: 'Raleway'; font-style: normal; font-weight: 700; font-display: swap; src: url(https://fonts.gstatic.com/s/raleway/v22/1Ptxg8zYS_SKggPN4iEgvnHyvveLxVs9pbCIPrE.woff2) format('woff2'); }
      .text { font-family: 'Raleway'; }
      .web { font-size: 4.5rem; letter-spacing: 4px; }
      .extensions { font-size: 4.2rem; }
    </style>
    <symbol id="icon" viewBox="0 0 100 100">
      <path d="M51.75 48.24c-2.55 1.26-5.17 2.56-7.81 3.82a2.84 2.84 0 0 1-1.18.17H26.93c.27 2.36.48 4.56.81 6.75a1.13 1.13 0 0 1-.74 1.47c-1.17.5-2.3 1.11-3.7 1.79L22 52.3H7.75a33.34 33.34 0 0 0 1.66 9.64C10.45 65 11.75 68 12.94 71c-1.42-.75-2.58-1.43-3.4-1.92-6.3-3.81-7.44-6-7.79-6.69A9.52 9.52 0 0 1 1 59.86c-2.87-16 .74-30.35 11.37-42.69A48.25 48.25 0 0 1 43.89.4a49.5 49.5 0 0 1 29.45 5.36 17.57 17.57 0 0 1 5.38 5 18.56 18.56 0 0 1 4.41 9.06 25.58 25.58 0 0 1 0 3.59.7.7 0 0 1-.27 0c-1.37-1.4-1.36-1.36-3.23-.69-2.31.83-4.64 1.59-7 2.39.66 1.8 1.44 3.61 2 5.5.77 2.58 1.38 5.2 2 7.81a1.19 1.19 0 0 1-.16.92c-1.2 1.44-2.45 2.83-3.88 4.46a59.22 59.22 0 0 0-4.23-17.57l-16.64 1.6v20.41zM31.23 25.88A61.9 61.9 0 0 0 27 47.9h20.37V27.68zm-4.39-1.05c-2.43-.9-5-1.8-7.52-2.81a1 1 0 0 0-1.42.35c-6.66 7.86-7.63 13-7.63 13a61.51 61.51 0 0 0-2.4 10.25c-.15.94-.25 1.73-.32 2.28H21.9c.57-4 .92-7.95 1.75-11.79s2.12-7.55 3.19-11.28zm24.89-1.44l14.51-1.62c-.25-.49-.37-.76-.52-1a49.77 49.77 0 0 0-9.43-11.66c-1.38-1.29-2.89-1.31-4.56-1.37v15.65zM47.39 7.74c-1 .11-2 .16-2.91.33a2.79 2.79 0 0 0-1.32.58 45 45 0 0 0-9.46 12c-.16.28-.28.58-.53 1.08l14.23 1.7V7.74zm30.83 11.11v-.36A40.3 40.3 0 0 0 62.8 9.78a62.67 62.67 0 0 1 7.44 10.58.82.82 0 0 0 .68.34c2.44-.59 4.87-1.22 7.3-1.85zM36.2 10a42.41 42.41 0 0 0-14.75 8.75c2.43.64 4.6 1.19 6.75 1.8a1 1 0 0 0 1.27-.55q2.26-3.7 4.65-7.33c.57-.86 1.26-1.67 2.08-2.67z" />
      <path d="M72.77 48v-1.74l4.82-.34.25 2h14.44c-.18-1.63-.33-3.25-.56-4.87-.16-1.1-.82-2.3-.53-3.23s1.5-1.54 2.27-2.33c1.22-1.25 2.42-2.53 3.62-3.79 6 15 3.89 40.57-17.27 56.36C59 105.6 32 101.6 16.71 87.18a38 38 0 0 0 5.07.67c2.45 0 4.89-.3 7.34-.43a3.52 3.52 0 0 1 1.51.23c1.73.73 3.42 1.53 5.13 2.3l.17-.21-2.36-3.41 4.2-1.59c1.64 2 3.28 3.93 4.82 5.92a3.61 3.61 0 0 0 2.94 1.43l1.86.08v-3l.8.17 2.48-9.74c.46-1.83 1-3.65 1.38-5.48a.75.75 0 0 1 1-.73c4.44.53 8.89 1 13.33 1.6a1.09 1.09 0 0 0 1.44-.74 60.42 60.42 0 0 0 5-20.91v-1.11H57.66c.34-1.37.61-2.61 1-3.82a1.2 1.2 0 0 1 .93-.41h13.14zm-.69 28.28c2.58.93 5.06 1.79 7.5 2.74a1.18 1.18 0 0 0 1.54-.38 42.23 42.23 0 0 0 10.63-21.86c.25-1.47.34-3 .5-4.45H77.79a63.06 63.06 0 0 1-5.71 23.95zm-6.56 3l-13.76-1.74V92.3c1.26-.13 2.44-.19 3.59-.4a2.82 2.82 0 0 0 1.53-.76 57.41 57.41 0 0 0 3.92-4.74c1.61-2.24 3.05-4.58 4.73-7.14zm4.75 1l-6.09 9.52a41.56 41.56 0 0 0 13-7.43z" />
      <path d="M26.69 70.73L20.45 67l34.64-17-8.8 34.65c-2-1.28-3.84-2.45-5.65-3.7a1.53 1.53 0 0 0-1.82-.08 38.66 38.66 0 0 1-14 4.06c-9.33.85-19.22-6.39-21.06-15.51a.92.92 0 0 1 0-.27c1.85 1.2 3.66 2.54 5.63 3.61a16.5 16.5 0 0 0 12.39 1.75 7.35 7.35 0 0 0 4.91-3.78zM77.82 42.75C83.7 36 86.57 28.38 86.1 19.58a12.47 12.47 0 0 0-4.5-9.28.57.57 0 0 1-.2-.31c5.84 2.36 10.41 6.07 12.79 12.11a26.57 26.57 0 0 1 1.7 7.9 1.25 1.25 0 0 1-.23.82c-4.58 5.45-10 9.67-16.92 11.81a5.71 5.71 0 0 1-.59.14 3.1 3.1 0 0 1-.33-.02z" />
    </symbol>
  </defs>
  <rect width="100%" height="100%" fill="#60b0f4" />
  <g class="icon" fill="#ffffff" dominant-baseline="middle" text-anchor="middle" alignment-baseline="middle">
    <use xlink:href="#icon" x="25%" y="5%" width="50%" height="50%" />
  </g>
  <g class="text" fill="#ffffff" dominant-baseline="middle" text-anchor="middle">
    <text class="web" x="50%" y="70%">WEB</text>
    <text class="extensions" x="50%" y="88%">Extensions</text>
  </g>
</svg>